<svg width="18" height="18" viewBox="0 0 18 18" fill="none" xmlns="http://www.w3.org/2000/svg">
<path d="M13.9583 15.625C13.9583 14.2989 13.4315 13.0271 12.4939 12.0895C11.5562 11.1518 10.2844 10.625 8.95833 10.625M8.95833 10.625C7.63225 10.625 6.36048 11.1518 5.4228 12.0895C4.48512 13.0271 3.95833 14.2989 3.95833 15.625M8.95833 10.625C10.7993 10.625 12.2917 9.13262 12.2917 7.29167C12.2917 5.45072 10.7993 3.95833 8.95833 3.95833C7.11738 3.95833 5.625 5.45072 5.625 7.29167C5.625 9.13262 7.11738 10.625 8.95833 10.625ZM17.2917 8.95833C17.2917 13.5607 13.5607 17.2917 8.95833 17.2917C4.35596 17.2917 0.625 13.5607 0.625 8.95833C0.625 4.35596 4.35596 0.625 8.95833 0.625C13.5607 0.625 17.2917 4.35596 17.2917 8.95833Z" stroke="#B0B0B0" stroke-width="1.25" stroke-linecap="round" stroke-linejoin="round"/>
</svg>
