<svg width="14" height="14" viewBox="0 0 14 14" fill="none" xmlns="http://www.w3.org/2000/svg">
<path d="M2.5637 5.95213C2.73292 6.33293 2.99229 6.66683 3.31941 6.92498C3.64654 7.18313 4.03158 7.35778 4.44129 7.43384C4.851 7.50991 5.27307 7.4851 5.67105 7.36157C6.06903 7.23804 6.43097 7.0195 6.7256 6.72481C7.02023 6.43012 7.23871 6.06815 7.36216 5.67014C7.48562 5.27214 7.51034 4.85006 7.4342 4.44036C7.35806 4.03067 7.18333 3.64566 6.92512 3.31859C6.66691 2.99152 6.33297 2.73221 5.95213 2.56306M5.66008 3.37053C5.52464 3.93538 5.3231 4.5015 4.9123 4.9123C4.5015 5.3231 3.93602 5.52464 3.37053 5.66008C2.45302 5.87981 1.64808 6.42869 1.10844 7.20259C0.568809 7.97648 0.332022 8.92153 0.443011 9.85844C0.553999 10.7953 1.00504 11.6589 1.71055 12.2853C2.41607 12.9117 3.32697 13.2573 4.27043 13.2566C9.23336 13.2566 13.2566 9.23336 13.2566 4.27043C13.2573 3.32697 12.9117 2.41607 12.2853 1.71055C11.6589 1.00504 10.7953 0.553999 9.85844 0.443011C8.92153 0.332022 7.97648 0.568809 7.20259 1.10844C6.42869 1.64808 5.87981 2.45302 5.66008 3.37053Z" stroke="#5AC178" stroke-width="0.832695" stroke-linecap="round" stroke-linejoin="round"/>
</svg>
