<svg width="15" height="15" viewBox="0 0 15 15" fill="none" xmlns="http://www.w3.org/2000/svg">
<path d="M12.0896 3.24992L13.6381 6.43174C13.9345 7.34305 13.9377 8.32437 13.6472 9.23759C13.3567 10.1508 12.7872 10.95 12.0189 11.5226C9.89765 13.2903 6.78654 14.5631 3.95826 14.5631C3.5646 14.5625 3.17885 14.4524 2.84419 14.2451C2.50952 14.0379 2.23914 13.7415 2.06331 13.3893L0.705732 10.6742M10.6047 8.69436C11.1846 8.25854 11.6532 7.69162 11.972 7.03999C12.2908 6.38835 12.4508 5.67051 12.4389 4.94517C12.4271 4.21983 12.2437 3.50759 11.9038 2.86673C11.5638 2.22586 11.077 1.67456 10.4832 1.25792C9.88931 0.841276 9.20526 0.57113 8.48697 0.469575C7.76868 0.36802 7.03654 0.43794 6.35046 0.673617C5.66437 0.909294 5.04382 1.30403 4.53955 1.82555C4.03529 2.34706 3.66164 2.98054 3.44917 3.67416C2.67139 5.88729 2.89765 6.43174 1.20068 7.97315C0.862534 8.25037 0.61832 8.62532 0.501466 9.04668C0.384612 9.46804 0.400828 9.91521 0.547894 10.327C0.694961 10.7388 0.965691 11.0951 1.32303 11.3471C1.68037 11.5991 2.10686 11.7345 2.54412 11.7348C5.3724 11.7348 8.48351 10.462 10.6047 8.69436ZM9.61482 5.01759C9.61482 5.99386 8.82341 6.78527 7.84715 6.78527C6.87089 6.78527 6.07947 5.99386 6.07947 5.01759C6.07947 4.04133 6.87089 3.24992 7.84715 3.24992C8.82341 3.24992 9.61482 4.04133 9.61482 5.01759Z" stroke="#5AC178" stroke-width="0.848485" stroke-linecap="round" stroke-linejoin="round"/>
</svg>
