<svg width="18" height="17" viewBox="0 0 18 17" fill="none" xmlns="http://www.w3.org/2000/svg">
<path d="M2.29167 4.79167V13.9583C2.29167 14.4004 2.46726 14.8243 2.77982 15.1368C3.09238 15.4494 3.51631 15.625 3.95833 15.625H13.9583C14.4004 15.625 14.8243 15.4494 15.1368 15.1368C15.4494 14.8243 15.625 14.4004 15.625 13.9583V4.79167M7.29167 8.125H10.625M1.45833 0.625H16.4583C16.9186 0.625 17.2917 0.998096 17.2917 1.45833V3.95833C17.2917 4.41857 16.9186 4.79167 16.4583 4.79167H1.45833C0.998096 4.79167 0.625 4.41857 0.625 3.95833V1.45833C0.625 0.998096 0.998096 0.625 1.45833 0.625Z" stroke="#B0B0B0" stroke-width="1.25" stroke-linecap="round" stroke-linejoin="round"/>
</svg>
