<svg width="33" height="33" viewBox="0 0 33 33" fill="none" xmlns="http://www.w3.org/2000/svg">
<path d="M13.1705 25.5205H4.57935C4.11078 25.5044 3.65747 25.3499 3.27653 25.0766C2.89559 24.8033 2.60406 24.4234 2.43868 23.9847C1.47407 20.6178 1.5469 17.0384 2.64768 13.7136M25.5205 13.1705V4.57935C25.5044 4.11078 25.3499 3.65747 25.0766 3.27653C24.8033 2.89559 24.4234 2.60406 23.9847 2.43868C20.6183 1.47439 17.0395 1.54723 13.7152 2.64768M25.5205 4.93718C27.2002 4.93718 28.8111 5.43763 29.9989 6.32843C31.1866 7.21922 31.8538 8.4274 31.8538 9.68718C31.8538 10.527 31.5202 11.3325 30.9264 11.9264C30.3325 12.5202 29.527 12.8538 28.6872 12.8538C25.8214 12.8531 23.0092 13.6302 20.5504 15.1022M4.93718 25.5205C4.93718 27.2002 5.43763 28.8111 6.32843 29.9989C7.21922 31.1866 8.4274 31.8538 9.68718 31.8538C10.527 31.8538 11.3325 31.5202 11.9264 30.9264C12.5202 30.3325 12.8538 29.527 12.8538 28.6872C12.8528 25.8209 13.6299 23.0081 15.1022 20.5488M10.8098 1.06435C8.55592 1.84924 6.50866 3.13349 4.82108 4.82108C3.13349 6.50866 1.84924 8.55592 1.06435 10.8098C0.948578 11.2969 0.989748 11.8082 1.18198 12.2706C1.3742 12.733 1.70765 13.1228 2.13468 13.3843L17.6624 21.9659C18.2637 22.2984 18.9568 22.4262 19.6371 22.3302C20.3174 22.2342 20.948 21.9196 21.4338 21.4338C21.9196 20.948 22.2342 20.3174 22.3302 19.6371C22.4262 18.9568 22.2984 18.2637 21.9659 17.6624L13.3843 2.13468C13.1228 1.70765 12.733 1.3742 12.2706 1.18198C11.8082 0.989748 11.2969 0.948578 10.8098 1.06435Z" stroke="#5AC178" stroke-width="2" stroke-linecap="round" stroke-linejoin="round"/>
</svg>
