<svg width="34" height="36" viewBox="0 0 34 36" fill="none" xmlns="http://www.w3.org/2000/svg">
<path d="M28.4967 7.66035L32.1467 15.1603C32.8453 17.3084 32.8529 19.6215 32.1682 21.7742C31.4836 23.9268 30.1412 25.8105 28.33 27.1603C23.33 31.327 15.9967 34.327 9.33 34.327C8.40209 34.3257 7.49283 34.0663 6.70398 33.5777C5.91513 33.0891 5.27781 32.3906 4.86334 31.5603L1.66334 25.1603M24.9967 20.4937C26.3636 19.4664 27.468 18.1301 28.2195 16.5941C28.9709 15.0581 29.3481 13.366 29.3201 11.6563C29.2922 9.94656 28.8599 8.26773 28.0587 6.75711C27.2574 5.24649 26.11 3.947 24.7102 2.96491C23.3104 1.98283 21.6979 1.34606 20.0048 1.10668C18.3117 0.867301 16.586 1.03211 14.9688 1.58764C13.3516 2.14316 11.8888 3.07362 10.7002 4.3029C9.51158 5.53218 8.63084 7.02538 8.13 8.66035C6.29667 13.877 6.83 15.1603 2.83 18.7937C2.03294 19.4471 1.45729 20.3309 1.18185 21.3241C0.906411 22.3173 0.944634 23.3714 1.29129 24.342C1.63795 25.3127 2.2761 26.1525 3.1184 26.7465C3.9607 27.3405 4.96599 27.6597 5.99667 27.6603C12.6633 27.6603 19.9967 24.6603 24.9967 20.4937ZM22.6633 11.827C22.6633 14.1282 20.7979 15.9937 18.4967 15.9937C16.1955 15.9937 14.33 14.1282 14.33 11.827C14.33 9.52583 16.1955 7.66035 18.4967 7.66035C20.7979 7.66035 22.6633 9.52583 22.6633 11.827Z" stroke="#5AC178" stroke-width="2" stroke-linecap="round" stroke-linejoin="round"/>
</svg>
