<svg width="33" height="33" viewBox="0 0 33 33" fill="none" xmlns="http://www.w3.org/2000/svg">
<path d="M6.15781 14.2963C6.56425 15.2109 7.18722 16.0129 7.97291 16.6329C8.7586 17.2529 9.68341 17.6724 10.6675 17.8551C11.6515 18.0378 12.6653 17.9782 13.6212 17.6815C14.577 17.3848 15.4464 16.8599 16.154 16.1521C16.8617 15.4443 17.3864 14.5749 17.6829 13.619C17.9795 12.663 18.0388 11.6493 17.856 10.6653C17.6731 9.68122 17.2534 8.7565 16.6332 7.97093C16.0131 7.18535 15.211 6.56254 14.2963 6.15627M13.5948 8.09568C13.2695 9.45235 12.7854 10.8121 11.7988 11.7988C10.8121 12.7854 9.45389 13.2695 8.09568 13.5948C5.89196 14.1226 3.95863 15.4409 2.66252 17.2997C1.3664 19.1584 0.797675 21.4283 1.06425 23.6786C1.33083 25.9289 2.41415 28.0031 4.10869 29.5076C5.80322 31.012 7.99106 31.8422 10.2571 31.8404C22.1773 31.8404 31.8404 22.1773 31.8404 10.2571C31.8422 7.99106 31.012 5.80322 29.5076 4.10869C28.0031 2.41415 25.9289 1.33083 23.6786 1.06425C21.4283 0.797675 19.1584 1.3664 17.2997 2.66252C15.4409 3.95863 14.1226 5.89196 13.5948 8.09568Z" stroke="#5AC178" stroke-width="2" stroke-linecap="round" stroke-linejoin="round"/>
</svg>
