<svg width="30" height="33" viewBox="0 0 30 33" fill="none" xmlns="http://www.w3.org/2000/svg">
<path d="M21.0417 13.3333C21.0417 14.9688 20.392 16.5374 19.2355 17.6938C18.079 18.8503 16.5105 19.5 14.875 19.5C13.2395 19.5 11.671 18.8503 10.5145 17.6938C9.35803 16.5374 8.70833 14.9688 8.70833 13.3333M1.15879 7.21908H28.5912M1.61667 6.34496C1.21638 6.87867 1 7.52782 1 8.19496V28.75C1 29.5678 1.32485 30.352 1.90309 30.9302C2.48132 31.5085 3.26558 31.8333 4.08333 31.8333H25.6667C26.4844 31.8333 27.2687 31.5085 27.8469 30.9302C28.4251 30.352 28.75 29.5678 28.75 28.75V8.19496C28.75 7.52782 28.5336 6.87867 28.1333 6.34496L25.05 2.23333C24.7628 1.8504 24.3904 1.53959 23.9622 1.32552C23.5341 1.11145 23.062 1 22.5833 1H7.16667C6.68799 1 6.2159 1.11145 5.78776 1.32552C5.35962 1.53959 4.9872 1.8504 4.7 2.23333L1.61667 6.34496Z" stroke="#E4FFE7" stroke-width="2" stroke-linecap="round" stroke-linejoin="round"/>
</svg>
