<svg width="23" height="20" viewBox="0 0 23 20" fill="none" xmlns="http://www.w3.org/2000/svg">
<path d="M3.08333 6V17C3.08333 17.5304 3.30283 18.0391 3.69353 18.4142C4.08423 18.7893 4.61413 19 5.16667 19H17.6667C18.2192 19 18.7491 18.7893 19.1398 18.4142C19.5305 18.0391 19.75 17.5304 19.75 17V6M9.33333 10H13.5M2.04167 1H20.7917C21.367 1 21.8333 1.44772 21.8333 2V5C21.8333 5.55228 21.367 6 20.7917 6H2.04167C1.46637 6 1 5.55228 1 5V2C1 1.44772 1.46637 1 2.04167 1Z" stroke="#E4FFE7" stroke-width="2" stroke-linecap="round" stroke-linejoin="round"/>
</svg>
