<svg width="37" height="36" viewBox="0 0 37 36" fill="none" xmlns="http://www.w3.org/2000/svg">
<path d="M18.0834 8.54667V2.66667C18.0834 2.22464 18.2634 1.80072 18.5837 1.48816C18.9041 1.17559 19.3386 1 19.7917 1M18.0834 8.54667C19.5582 7.25973 21.3833 6.41676 23.3383 6.1195C25.2934 5.82224 27.2949 6.08341 29.1011 6.87147C30.9074 7.65954 32.4413 8.94081 33.5176 10.5606C34.5939 12.1805 35.1667 14.0696 35.1667 16C35.1934 22.137 32.9053 28.0692 28.7382 32.6667C27.9734 33.5014 26.9435 34.0616 25.8136 34.2574C24.6836 34.4533 23.519 34.2734 22.5062 33.7467C21.1451 33.0382 19.6261 32.6676 18.0834 32.6676C16.5406 32.6676 15.0216 33.0382 13.6605 33.7467C12.6478 34.2734 11.4831 34.4533 10.3532 34.2574C9.22322 34.0616 8.19333 33.5014 7.4285 32.6667C3.2753 28.0611 0.989259 22.1342 1.00004 16C1.00008 14.0696 1.57283 12.1805 2.64914 10.5606C3.72545 8.94081 5.25932 7.65954 7.0656 6.87147C8.87187 6.08341 10.8733 5.82224 12.8284 6.1195C14.7835 6.41676 16.6086 7.25973 18.0834 8.54667Z" stroke="#5AC178" stroke-width="2" stroke-linecap="round" stroke-linejoin="round"/>
</svg>
