<svg width="33" height="32" viewBox="0 0 33 32" fill="none" xmlns="http://www.w3.org/2000/svg">
<path d="M14.5188 16.0002H14.5338M17.5188 31.0002C18.2688 30.2502 19.1988 29.5002 21.2688 29.5002M21.2688 29.5002C19.1988 29.5002 18.2688 28.7502 17.5188 28.0002M21.2688 29.5002C23.8547 29.5002 26.3346 28.473 28.1631 26.6445C29.9916 24.8161 31.0188 22.3361 31.0188 19.7502C31.0188 17.1644 29.9916 14.6844 28.1631 12.856C26.3346 11.0275 23.8547 10.0002 21.2688 10.0002H4.59933C4.1139 10.0028 3.63301 9.90661 3.18591 9.71753C2.7388 9.52846 2.33482 9.25044 1.9985 8.90037C1.66219 8.55031 1.40057 8.13551 1.22955 7.68119C1.05853 7.22688 0.981684 6.74253 1.00368 6.25759C1.02567 5.77264 1.14604 5.29724 1.35748 4.86027C1.56892 4.42329 1.86701 4.03388 2.23363 3.71569C2.60025 3.39751 3.02774 3.15719 3.49012 3.00936C3.9525 2.86153 4.44012 2.80926 4.92333 2.85574L14.1783 3.69724C15.1627 3.78591 16.151 3.57604 17.0144 3.09498C17.8778 2.61392 18.5762 1.88397 19.0188 1.00024M21.2688 29.5002C22.2634 29.5002 23.2172 29.1052 23.9205 28.4019C24.6237 27.6986 25.0188 26.7448 25.0188 25.7502C25.0188 24.7557 24.6237 23.8019 23.9205 23.0986C23.2172 22.3953 22.2634 22.0002 21.2688 22.0002H16.0188C13.2341 22.0002 10.5633 20.894 8.59421 18.9249C6.62508 16.9557 5.51883 14.285 5.51883 11.5002V10.0002M19.0188 10.0002C20.0037 11.8468 20.5188 13.9074 20.5188 16.0002C20.5188 18.093 20.0037 20.1537 19.0188 22.0002M22.0188 22.0002C25.0188 22.0002 28.7688 16.0002 28.0188 13.0002" stroke="#5AC178" stroke-width="2" stroke-linecap="round" stroke-linejoin="round"/>
</svg>
