<svg width="33" height="46" viewBox="0 0 33 46" fill="none" xmlns="http://www.w3.org/2000/svg">
<path d="M8.90288 26.8384L3.95403 24.103M22.0593 25.165L16.1143 21.8601M18.2237 14.1085C18.2237 14.1085 20.6632 9.3785 23.7533 8.5105C27.8419 7.36197 31.4129 10.4035 31.4129 10.4035C31.4129 10.4035 29.9719 14.853 25.8833 16.0015C21.7946 17.15 18.2237 14.1085 18.2237 14.1085ZM18.2237 14.1085C18.2237 14.1085 13.7471 12.6762 12.5916 8.61236C11.4361 4.54849 14.4962 0.999181 14.4962 0.999181C14.4962 0.999181 18.9728 2.4314 20.1283 6.49527C21.0122 9.60404 18.2237 14.1085 18.2237 14.1085ZM1.00096 44.6301C1.00096 44.6301 17.734 32.8515 21.5997 25.9817C22.1654 24.9783 22.5267 23.8739 22.663 22.7317C22.7993 21.5894 22.7079 20.4317 22.3941 19.3246C22.0802 18.2175 21.5501 17.1826 20.8338 16.2791C20.1176 15.3757 19.2294 14.6213 18.2198 14.059C17.2102 13.4967 16.0991 13.1376 14.95 13.0021C13.8008 12.8667 12.636 12.9575 11.5221 13.2694C10.4082 13.5814 9.36707 14.1084 8.45809 14.8202C7.54911 15.5321 6.79011 16.415 6.22441 17.4184C2.34512 24.3123 1.00096 44.6301 1.00096 44.6301Z" stroke="#5AC178" stroke-width="2" stroke-linecap="round" stroke-linejoin="round"/>
</svg>
