<svg width="18" height="20" viewBox="0 0 18 20" fill="none" xmlns="http://www.w3.org/2000/svg">
<path d="M4.25 8.08333V5.33333C4.25 4.11776 4.71094 2.95197 5.53141 2.09243C6.35188 1.23289 7.46468 0.75 8.625 0.75C9.78532 0.75 10.8981 1.23289 11.7186 2.09243C12.5391 2.95197 13 4.11776 13 5.33333V8.08333M9.5 13.5833C9.5 14.0896 9.10825 14.5 8.625 14.5C8.14175 14.5 7.75 14.0896 7.75 13.5833C7.75 13.0771 8.14175 12.6667 8.625 12.6667C9.10825 12.6667 9.5 13.0771 9.5 13.5833ZM2.5 8.08333H14.75C15.7165 8.08333 16.5 8.90414 16.5 9.91667V17.25C16.5 18.2625 15.7165 19.0833 14.75 19.0833H2.5C1.5335 19.0833 0.75 18.2625 0.75 17.25V9.91667C0.75 8.90414 1.5335 8.08333 2.5 8.08333Z" stroke="#B0B0B0" stroke-width="1.5" stroke-linecap="round" stroke-linejoin="round"/>
</svg>
